<mxfile host="app.diagrams.net" modified="2022-06-30T10:37:52.649Z" agent="5.0 (Windows)" etag="y6B2orlIrnlTgxijmByh" version="20.0.4" type="github">
  <diagram id="m0kRPJLSFGfcrwx1oqtr" name="Page-1">
    <mxGraphModel dx="868" dy="440" grid="1" gridSize="10" guides="1" tooltips="1" connect="1" arrows="1" fold="1" page="1" pageScale="1" pageWidth="850" pageHeight="1100" math="0" shadow="0">
      <root>
        <mxCell id="0" />
        <mxCell id="1" parent="0" />
      </root>
    </mxGraphModel>
  </diagram>
</mxfile>
